<svg width="50" height="50" viewBox="0 0 50 50" fill="none" xmlns="http://www.w3.org/2000/svg">
<path d="M25 0C20.0555 0 15.222 1.46622 11.1108 4.21326C6.99952 6.96029 3.79521 10.8648 1.90302 15.4329C0.0108321 20.0011 -0.484251 25.0277 0.480379 29.8773C1.44501 34.7268 3.82603 39.1814 7.32234 42.6777C10.8187 46.174 15.2732 48.555 20.1227 49.5196C24.9723 50.4842 29.9989 49.9892 34.5671 48.097C39.1352 46.2048 43.0397 43.0005 45.7867 38.8892C48.5338 34.778 50 29.9445 50 25C49.993 18.3717 47.3568 12.017 42.6699 7.33006C37.983 2.64317 31.6283 0.00699956 25 0ZM25 46.1538C20.8162 46.1538 16.7263 44.9132 13.2476 42.5888C9.76883 40.2644 7.05749 36.9606 5.4564 33.0952C3.85532 29.2299 3.4364 24.9765 4.25263 20.8731C5.06885 16.7696 7.08356 13.0004 10.042 10.042C13.0004 7.08355 16.7697 5.06884 20.8731 4.25262C24.9765 3.43639 29.2299 3.85531 33.0952 5.45639C36.9606 7.05748 40.2644 9.76882 42.5888 13.2475C44.9132 16.7263 46.1538 20.8162 46.1538 25C46.1475 30.6084 43.9167 35.9853 39.951 39.951C35.9853 43.9167 30.6084 46.1475 25 46.1538ZM35.976 23.6394C36.1548 23.818 36.2966 24.0301 36.3934 24.2636C36.4902 24.497 36.54 24.7473 36.54 25C36.54 25.2527 36.4902 25.503 36.3934 25.7364C36.2966 25.9699 36.1548 26.182 35.976 26.3606L28.2837 34.0529C27.9228 34.4137 27.4334 34.6164 26.9231 34.6164C26.4128 34.6164 25.9234 34.4137 25.5625 34.0529C25.2017 33.692 24.9989 33.2026 24.9989 32.6923C24.9989 32.182 25.2017 31.6926 25.5625 31.3317L29.9736 26.9231H15.3846C14.8746 26.9231 14.3854 26.7205 14.0248 26.3598C13.6642 25.9992 13.4615 25.51 13.4615 25C13.4615 24.49 13.6642 24.0008 14.0248 23.6402C14.3854 23.2795 14.8746 23.0769 15.3846 23.0769H29.9736L25.5625 18.6683C25.2017 18.3074 24.9989 17.818 24.9989 17.3077C24.9989 16.7974 25.2017 16.308 25.5625 15.9471C25.9234 15.5863 26.4128 15.3835 26.9231 15.3835C27.4334 15.3835 27.9228 15.5863 28.2837 15.9471L35.976 23.6394Z" fill="black"/>
</svg>
