<svg width="94" height="70" viewBox="0 0 94 70" fill="none" xmlns="http://www.w3.org/2000/svg">
<path d="M45.2593 21H90.5185C91.4419 21 92.3274 21.3687 92.9803 22.0251C93.6332 22.6815 94 23.5717 94 24.5C94 25.4283 93.6332 26.3185 92.9803 26.9749C92.3274 27.6313 91.4419 28 90.5185 28H45.2593C44.3359 28 43.4504 27.6313 42.7975 26.9749C42.1446 26.3185 41.7778 25.4283 41.7778 24.5C41.7778 23.5717 42.1446 22.6815 42.7975 22.0251C43.4504 21.3687 44.3359 21 45.2593 21ZM90.5185 35H45.2593C44.3359 35 43.4504 35.3687 42.7975 36.0251C42.1446 36.6815 41.7778 37.5717 41.7778 38.5C41.7778 39.4283 42.1446 40.3185 42.7975 40.9749C43.4504 41.6313 44.3359 42 45.2593 42H90.5185C91.4419 42 92.3274 41.6313 92.9803 40.9749C93.6332 40.3185 94 39.4283 94 38.5C94 37.5717 93.6332 36.6815 92.9803 36.0251C92.3274 35.3687 91.4419 35 90.5185 35ZM90.5185 49H24.3704C23.447 49 22.5615 49.3687 21.9086 50.0251C21.2557 50.6815 20.8889 51.5717 20.8889 52.5C20.8889 53.4283 21.2557 54.3185 21.9086 54.9749C22.5615 55.6313 23.447 56 24.3704 56H90.5185C91.4419 56 92.3274 55.6313 92.9803 54.9749C93.6332 54.3185 94 53.4283 94 52.5C94 51.5717 93.6332 50.6815 92.9803 50.0251C92.3274 49.3687 91.4419 49 90.5185 49ZM90.5185 63H24.3704C23.447 63 22.5615 63.3687 21.9086 64.0251C21.2557 64.6815 20.8889 65.5717 20.8889 66.5C20.8889 67.4283 21.2557 68.3185 21.9086 68.9749C22.5615 69.6313 23.447 70 24.3704 70H90.5185C91.4419 70 92.3274 69.6313 92.9803 68.9749C93.6332 68.3185 94 67.4283 94 66.5C94 65.5717 93.6332 64.6815 92.9803 64.0251C92.3274 63.3687 91.4419 63 90.5185 63ZM31.3333 42C32.2567 42 33.1422 41.6313 33.7951 40.9749C34.448 40.3185 34.8148 39.4283 34.8148 38.5C34.8148 37.5717 34.448 36.6815 33.7951 36.0251C33.1422 35.3687 32.2567 35 31.3333 35H27.8519V7H41.7778V10.5C41.7778 11.4283 42.1446 12.3185 42.7975 12.9749C43.4504 13.6313 44.3359 14 45.2593 14C46.1826 14 47.0681 13.6313 47.721 12.9749C48.3739 12.3185 48.7407 11.4283 48.7407 10.5V3.5C48.7407 2.57174 48.3739 1.6815 47.721 1.02513C47.0681 0.36875 46.1826 0 45.2593 0H3.48148C2.55814 0 1.67261 0.36875 1.0197 1.02513C0.366798 1.6815 0 2.57174 0 3.5V10.5C0 11.4283 0.366798 12.3185 1.0197 12.9749C1.67261 13.6313 2.55814 14 3.48148 14C4.40483 14 5.29036 13.6313 5.94326 12.9749C6.59616 12.3185 6.96296 11.4283 6.96296 10.5V7H20.8889V35H17.4074C16.4841 35 15.5985 35.3687 14.9456 36.0251C14.2927 36.6815 13.9259 37.5717 13.9259 38.5C13.9259 39.4283 14.2927 40.3185 14.9456 40.9749C15.5985 41.6313 16.4841 42 17.4074 42H31.3333Z" fill="black"/>
</svg>
