<svg width="59" height="70" viewBox="0 0 59 70" fill="none" xmlns="http://www.w3.org/2000/svg">
<path d="M56.3182 0H10.7273C7.88222 0 5.1537 1.13461 3.14195 3.15423C1.13019 5.17386 0 7.91305 0 10.7692V67.3077C0 68.0217 0.282548 68.7065 0.785487 69.2114C1.28843 69.7163 1.97056 70 2.68182 70H50.9545C51.6658 70 52.3479 69.7163 52.8509 69.2114C53.3538 68.7065 53.6364 68.0217 53.6364 67.3077C53.6364 66.5937 53.3538 65.9088 52.8509 65.4039C52.3479 64.899 51.6658 64.6154 50.9545 64.6154H5.36364C5.36364 63.1873 5.92873 61.8177 6.93461 60.8079C7.94049 59.7981 9.30475 59.2308 10.7273 59.2308H56.3182C57.0294 59.2308 57.7116 58.9471 58.2145 58.4422C58.7175 57.9373 59 57.2525 59 56.5385V2.69231C59 1.97826 58.7175 1.29346 58.2145 0.788559C57.7116 0.283653 57.0294 0 56.3182 0ZM26.8182 5.38462H42.9091V29.6154L36.4694 24.7692C36.0052 24.4197 35.4406 24.2308 34.8603 24.2308C34.28 24.2308 33.7154 24.4197 33.2512 24.7692L26.8182 29.6154V5.38462ZM53.6364 53.8462H10.7273C8.84378 53.8436 6.99319 54.3417 5.36364 55.2899V10.7692C5.36364 9.34114 5.92873 7.97154 6.93461 6.96173C7.94049 5.95192 9.30475 5.38462 10.7273 5.38462H21.4545V35C21.4545 35.5 21.5932 35.9901 21.8551 36.4154C22.1169 36.8408 22.4916 37.1845 22.937 37.4081C23.3825 37.6317 23.8812 37.7263 24.3772 37.6814C24.8732 37.6365 25.347 37.4538 25.7455 37.1538L34.8636 30.2885L43.9852 37.1538C44.4485 37.5027 45.0118 37.6916 45.5909 37.6923C46.3022 37.6923 46.9843 37.4087 47.4872 36.9038C47.9902 36.3988 48.2727 35.714 48.2727 35V5.38462H53.6364V53.8462Z" fill="#1E1E1E"/>
</svg>
