<svg width="30" height="33" viewBox="0 0 30 33" fill="none" xmlns="http://www.w3.org/2000/svg">
<path d="M29.6596 24.1069C28.7922 22.5901 27.5029 18.2983 27.5029 12.6929C27.5029 9.3265 26.1858 6.09802 23.8411 3.71765C21.4965 1.33728 18.3166 0 15.0008 0C11.685 0 8.50503 1.33728 6.16042 3.71765C3.81581 6.09802 2.49862 9.3265 2.49862 12.6929C2.49862 18.2999 1.20777 22.5901 0.340435 24.1069C0.118945 24.4925 0.00152416 24.9306 1.47384e-05 25.377C-0.00149468 25.8234 0.112961 26.2623 0.331838 26.6494C0.550716 27.0366 0.866275 27.3583 1.24669 27.5821C1.62711 27.8059 2.05894 27.924 2.49862 27.9243H8.87628C9.16473 29.3572 9.93182 30.6451 11.0478 31.57C12.1638 32.4948 13.5602 33 15.0008 33C16.4414 33 17.8378 32.4948 18.9538 31.57C20.0697 30.6451 20.8368 29.3572 21.1253 27.9243H27.5029C27.9425 27.9237 28.3741 27.8055 28.7543 27.5815C29.1345 27.3576 29.4499 27.0358 29.6686 26.6487C29.8872 26.2616 30.0016 25.8229 30 25.3766C29.9984 24.9303 29.881 24.4924 29.6596 24.1069ZM15.0008 30.4629C14.2254 30.4626 13.4691 30.2184 12.836 29.7638C12.203 29.3091 11.7243 28.6665 11.4658 27.9243H18.5358C18.2773 28.6665 17.7986 29.3091 17.1655 29.7638C16.5325 30.2184 15.7762 30.4626 15.0008 30.4629ZM2.49862 25.3857C3.70195 23.285 4.99905 18.4173 4.99905 12.6929C4.99905 9.99977 6.0528 7.41699 7.92849 5.51269C9.80418 3.60839 12.3482 2.53857 15.0008 2.53857C17.6534 2.53857 20.1974 3.60839 22.0731 5.51269C23.9488 7.41699 25.0025 9.99977 25.0025 12.6929C25.0025 18.4126 26.2965 23.2803 27.5029 25.3857H2.49862Z" fill="black"/>
</svg>
