<svg width="82" height="70" viewBox="0 0 82 70" fill="none" xmlns="http://www.w3.org/2000/svg">
<path d="M32.2143 26.25C32.2143 25.4765 32.5228 24.7346 33.072 24.1876C33.6213 23.6406 34.3662 23.3333 35.1429 23.3333H58.5714C59.3481 23.3333 60.093 23.6406 60.6422 24.1876C61.1915 24.7346 61.5 25.4765 61.5 26.25C61.5 27.0235 61.1915 27.7654 60.6422 28.3124C60.093 28.8594 59.3481 29.1667 58.5714 29.1667H35.1429C34.3662 29.1667 33.6213 28.8594 33.072 28.3124C32.5228 27.7654 32.2143 27.0235 32.2143 26.25ZM35.1429 40.8333H58.5714C59.3481 40.8333 60.093 40.526 60.6422 39.9791C61.1915 39.4321 61.5 38.6902 61.5 37.9167C61.5 37.1431 61.1915 36.4013 60.6422 35.8543C60.093 35.3073 59.3481 35 58.5714 35H35.1429C34.3662 35 33.6213 35.3073 33.072 35.8543C32.5228 36.4013 32.2143 37.1431 32.2143 37.9167C32.2143 38.6902 32.5228 39.4321 33.072 39.9791C33.6213 40.526 34.3662 40.8333 35.1429 40.8333ZM82 58.3333C82 61.4275 80.7658 64.395 78.569 66.5829C76.3721 68.7708 73.3925 70 70.2857 70H29.2857C26.1789 70 23.1993 68.7708 21.0025 66.5829C18.8056 64.395 17.5714 61.4275 17.5714 58.3333V11.6667C17.5714 10.1196 16.9543 8.63584 15.8559 7.54188C14.7575 6.44791 13.2677 5.83333 11.7143 5.83333C10.1609 5.83333 8.67109 6.44791 7.57266 7.54188C6.47423 8.63584 5.85714 10.1196 5.85714 11.6667C5.85714 13.7594 7.62527 15.174 7.64357 15.1885C8.12825 15.56 8.484 16.0733 8.6609 16.6564C8.83781 17.2394 8.82698 17.863 8.62995 18.4396C8.43292 19.0163 8.05957 19.517 7.56228 19.8716C7.065 20.2261 6.46873 20.4167 5.85714 20.4167C5.22384 20.4178 4.60773 20.2115 4.10366 19.8297C3.67902 19.5198 0 16.6286 0 11.6667C0 8.57247 1.23418 5.60501 3.43104 3.41709C5.62789 1.22916 8.60746 0 11.7143 0H61.5C64.6068 0 67.5864 1.22916 69.7832 3.41709C71.9801 5.60501 73.2143 8.57247 73.2143 11.6667V49.5833H76.1429C76.7765 49.5833 77.3931 49.788 77.9 50.1667C78.3393 50.4802 82 53.3714 82 58.3333ZM32.3095 51.5812C32.5096 50.993 32.8914 50.4829 33.4004 50.124C33.9094 49.7652 34.5193 49.5759 35.1429 49.5833H67.3571V11.6667C67.3571 10.1196 66.7401 8.63584 65.6416 7.54188C64.5432 6.44791 63.0534 5.83333 61.5 5.83333H21.8508C22.8866 7.60414 23.4311 9.61732 23.4286 11.6667V58.3333C23.4286 59.8804 24.0457 61.3642 25.1441 62.4581C26.2425 63.5521 27.7323 64.1667 29.2857 64.1667C30.8391 64.1667 32.3289 63.5521 33.4273 62.4581C34.5258 61.3642 35.1429 59.8804 35.1429 58.3333C35.1429 56.2406 33.3747 54.826 33.3564 54.8115C32.8573 54.4559 32.4862 53.95 32.2977 53.3684C32.1092 52.7868 32.1133 52.1603 32.3095 51.5812ZM76.1429 58.3333C76.1062 57.2527 75.6875 56.2197 74.9604 55.4167H40.5497C40.8441 56.3611 40.9934 57.3444 40.9927 58.3333C40.9955 60.3818 40.4536 62.3944 39.4222 64.1667H70.2857C71.8391 64.1667 73.3289 63.5521 74.4273 62.4581C75.5258 61.3642 76.1429 59.8804 76.1429 58.3333Z" fill="black"/>
</svg>
