<svg width="30" height="30" viewBox="0 0 30 30" fill="none" xmlns="http://www.w3.org/2000/svg">
<path d="M29.6622 28.0313L22.4484 20.8189C24.5393 18.3087 25.5819 15.0891 25.3593 11.8297C25.1368 8.57039 23.6663 5.52232 21.2537 3.31959C18.841 1.11685 15.6721 -0.0709464 12.406 0.0032806C9.13991 0.0775077 6.02817 1.40805 3.71811 3.71811C1.40805 6.02817 0.0775077 9.13991 0.0032806 12.406C-0.0709464 15.6721 1.11685 18.841 3.31959 21.2537C5.52232 23.6663 8.57039 25.1368 11.8297 25.3593C15.0891 25.5819 18.3087 24.5393 20.8189 22.4484L28.0313 29.6622C28.1384 29.7693 28.2655 29.8543 28.4054 29.9122C28.5454 29.9702 28.6953 30 28.8468 30C28.9982 30 29.1482 29.9702 29.2881 29.9122C29.428 29.8543 29.5551 29.7693 29.6622 29.6622C29.7693 29.5551 29.8543 29.428 29.9122 29.2881C29.9702 29.1482 30 28.9982 30 28.8468C30 28.6953 29.9702 28.5454 29.9122 28.4054C29.8543 28.2655 29.7693 28.1384 29.6622 28.0313ZM2.33704 12.7104C2.33704 10.6587 2.94543 8.65316 4.08527 6.94727C5.22511 5.24138 6.84521 3.9118 8.74069 3.12666C10.6362 2.34153 12.7219 2.1361 14.7342 2.53636C16.7464 2.93662 18.5947 3.92459 20.0455 5.37533C21.4962 6.82607 22.4842 8.67443 22.8845 10.6867C23.2847 12.6989 23.0793 14.7846 22.2942 16.6801C21.509 18.5756 20.1794 20.1957 18.4735 21.3356C16.7677 22.4754 14.7621 23.0838 12.7104 23.0838C9.96016 23.0807 7.32342 21.9868 5.3787 20.0421C3.43397 18.0974 2.34009 15.4607 2.33704 12.7104Z" fill="black"/>
</svg>
