<svg width="75" height="70" viewBox="0 0 75 70" fill="none" xmlns="http://www.w3.org/2000/svg">
<path d="M66.3462 0H8.65385C6.3587 0 4.15756 0.921873 2.53465 2.56282C0.911742 4.20376 0 6.42936 0 8.75V49.5833C0 51.904 0.911742 54.1296 2.53465 55.7705C4.15756 57.4115 6.3587 58.3333 8.65385 58.3333H66.3462C68.6413 58.3333 70.8424 57.4115 72.4653 55.7705C74.0883 54.1296 75 51.904 75 49.5833V8.75C75 6.42936 74.0883 4.20376 72.4653 2.56282C70.8424 0.921873 68.6413 0 66.3462 0ZM69.2308 49.5833C69.2308 50.3569 68.9269 51.0987 68.3859 51.6457C67.8449 52.1927 67.1112 52.5 66.3462 52.5H8.65385C7.8888 52.5 7.15509 52.1927 6.61412 51.6457C6.07315 51.0987 5.76923 50.3569 5.76923 49.5833V8.75C5.76923 7.97645 6.07315 7.23459 6.61412 6.6876C7.15509 6.14062 7.8888 5.83333 8.65385 5.83333H66.3462C67.1112 5.83333 67.8449 6.14062 68.3859 6.6876C68.9269 7.23459 69.2308 7.97645 69.2308 8.75V49.5833ZM51.9231 67.0833C51.9231 67.8569 51.6192 68.5987 51.0782 69.1457C50.5372 69.6927 49.8035 70 49.0385 70H25.9615C25.1965 70 24.4628 69.6927 23.9218 69.1457C23.3808 68.5987 23.0769 67.8569 23.0769 67.0833C23.0769 66.3098 23.3808 65.5679 23.9218 65.0209C24.4628 64.474 25.1965 64.1667 25.9615 64.1667H49.0385C49.8035 64.1667 50.5372 64.474 51.0782 65.0209C51.6192 65.5679 51.9231 66.3098 51.9231 67.0833ZM50.6394 26.7385L33.3317 15.0719C32.8972 14.7787 32.3921 14.6104 31.8704 14.5849C31.3486 14.5593 30.8298 14.6775 30.3693 14.9268C29.9088 15.176 29.5238 15.5471 29.2556 16.0003C28.9873 16.4535 28.8458 16.9718 28.8462 17.5V40.8333C28.8458 41.3615 28.9873 41.8798 29.2556 42.333C29.5238 42.7862 29.9088 43.1573 30.3693 43.4066C30.8298 43.6559 31.3486 43.774 31.8704 43.7485C32.3921 43.7229 32.8972 43.5546 33.3317 43.2615L50.6394 31.5948C51.0351 31.3285 51.3596 30.9676 51.584 30.544C51.8084 30.1204 51.9259 29.6472 51.9259 29.1667C51.9259 28.6861 51.8084 28.213 51.584 27.7894C51.3596 27.3658 51.0351 27.0048 50.6394 26.7385ZM34.6154 35.3828V22.9688L43.8389 29.1667L34.6154 35.3828Z" fill="black"/>
</svg>
