<svg width="33" height="30" viewBox="0 0 33 30" fill="none" xmlns="http://www.w3.org/2000/svg">
<path d="M30.4615 5H24.1154V3.75C24.1154 2.75544 23.7142 1.80161 23.0001 1.09835C22.2861 0.395088 21.3176 0 20.3077 0H12.6923C11.6824 0 10.7139 0.395088 9.99986 1.09835C9.28578 1.80161 8.88461 2.75544 8.88461 3.75V5H2.53846C1.86522 5 1.21955 5.26339 0.743498 5.73223C0.267444 6.20107 0 6.83696 0 7.5V27.5C0 28.163 0.267444 28.7989 0.743498 29.2678C1.21955 29.7366 1.86522 30 2.53846 30H30.4615C31.1348 30 31.7804 29.7366 32.2565 29.2678C32.7326 28.7989 33 28.163 33 27.5V7.5C33 6.83696 32.7326 6.20107 32.2565 5.73223C31.7804 5.26339 31.1348 5 30.4615 5ZM11.4231 3.75C11.4231 3.41848 11.5568 3.10054 11.7948 2.86612C12.0329 2.6317 12.3557 2.5 12.6923 2.5H20.3077C20.6443 2.5 20.9671 2.6317 21.2052 2.86612C21.4432 3.10054 21.5769 3.41848 21.5769 3.75V5H11.4231V3.75ZM30.4615 7.5V14.0016C26.1775 16.2981 21.3775 17.5009 16.5 17.5C11.6227 17.5009 6.82279 16.2987 2.53846 14.0031V7.5H30.4615ZM30.4615 27.5H2.53846V16.8188C6.88546 18.9128 11.6608 20.0009 16.5 20C21.3392 20.0001 26.1146 18.9115 30.4615 16.8172V27.5ZM12.6923 13.75C12.6923 13.4185 12.826 13.1005 13.0641 12.8661C13.3021 12.6317 13.6249 12.5 13.9615 12.5H19.0385C19.3751 12.5 19.6979 12.6317 19.9359 12.8661C20.174 13.1005 20.3077 13.4185 20.3077 13.75C20.3077 14.0815 20.174 14.3995 19.9359 14.6339C19.6979 14.8683 19.3751 15 19.0385 15H13.9615C13.6249 15 13.3021 14.8683 13.0641 14.6339C12.826 14.3995 12.6923 14.0815 12.6923 13.75Z" fill="black"/>
</svg>
